Patient4_TMGait_0pt3_03_right_13_EMG.mot
version=1
nRows=36
nColumns=33
inDegrees=no
endheader
time	1LAddLong	2LGlutMax	3LGlutMed	4LIliopsoas	5LSemiMemb	6LBicFemLong	7LRecFem	8LVastMed	9LVastLat	10LGasMed	11LTibAnt	12lTibPost	13LPeroneusLong	14LSol	15LExtDigLong	16LFlexDigLong	17RAddLong	18RGlutMax	19RGlutMed	20RIliopsoas	21RSemiMemb	22RBicFemLong	23RRecFem	24RVastMed	25RVastLat	26RGasMed	27RTibAnt	28RTibPost	29RPeroneusLong	30RSol	31RExtDigLong	32RFlexDigLong
25.925	0.000916	0.177	-0.029297	-0.016937	-0.08728	-0.2887	0.095825	-0.021057	-0.053101	-0.032959	-0.090485	-0.010986	-0.10925	0.31754	-0.003052	-0.068512	0.033264	-0.086365	0.027771	-0.031891	0.13657	-0.04364	-0.093689	0.001221	0.11795	-0.001373	0.12909	-0.00351	-0.007172	-0.11688	0.006104	-0.010681
25.926	0.009766	0.17212	-0.017242	-0.000916	-0.056763	-0.39581	-0.016937	0.007629	-0.20752	-0.032349	-0.002899	-0.013733	-0.048828	0.22781	-0.13519	-0.064392	0.033112	-0.063629	0.060577	-0.033722	0.089417	0.001984	0.026398	0.065918	0.022125	0.001831	0.002136	-0.005035	0.003967	-0.16968	0.002289	-0.012207
25.927	-0.002136	0.11154	-0.028687	-0.011749	-0.013275	-0.32028	-0.10315	0.011749	-0.16815	-0.049744	0.10986	-0.011749	-0.054932	0.22156	-0.16419	-0.055542	0.007324	-0.027008	0.070496	-0.035553	-0.13092	0.037079	-0.027161	0.10895	0.067902	-0.001526	0.23987	-0.002747	0.03006	-0.15915	0.002899	-0.017395
25.928	-0.020142	0.053253	-0.044098	-0.003357	0.001068	-0.044861	-0.097046	0.019073	-0.13611	-0.022583	0.005035	-0.004578	-0.094604	0.20844	-0.25085	-0.053253	-0.031128	0.023651	0.071869	-0.026245	-0.31464	-0.049744	-0.23529	0.12054	0.20935	0.009003	-0.63965	-0.006256	0.23865	-0.18295	0.001678	-0.009003
25.929	-0.002747	0.041046	-0.089264	-0.000305	0.075073	0.064392	-0.095062	0.027466	-0.086975	-0.013885	-0.088043	-0.010834	-0.04425	0.18387	0.078735	-0.038452	0.004425	-0.002747	-0.056	-0.0177	-0.02121	-0.099335	-0.27741	-0.020294	0.16968	0.005951	-0.61279	-0.001831	0.2684	-0.19348	0.000305	-0.005493
25.93	0.023499	-0.026093	-0.1004	-0.010834	0.12665	0.077515	-0.12299	0.008087	-0.024261	-0.055847	-0.11231	-0.027618	0.029449	0.14206	0.20386	-0.038605	0.022125	-0.006714	-0.10361	-0.071411	0.000763	-0.023651	-0.19562	-0.052948	0.12131	-0.000458	-0.38498	-0.00412	0.054321	-0.15305	-0.000916	-0.014496
25.931	0.040894	-0.048828	-0.058899	-0.019226	0.092316	0.17441	-0.12741	-0.00824	0.11032	-0.062561	-0.16769	-0.010529	0.068359	0.10269	-0.18448	-0.039825	0.029907	0.073547	-0.10056	-0.076447	-0.06134	0.069733	-0.11932	-0.057678	0.029602	-0.003967	-0.37399	-0.001678	-0.038757	-0.024261	0.001221	-0.013123
25.932	0.033722	-0.11231	-0.009155	0.003357	0.057678	0.15457	-0.13153	-0.005798	0.12329	-0.045166	-0.12375	-0.012665	0.07019	0.007782	-0.32593	-0.028381	0.007172	0.032043	0.011749	-0.067444	0.05722	0.050964	-0.10208	0.039673	0.035095	-0.001831	-0.39215	-0.003357	-0.089569	0.11581	-0.000916	-0.020294
25.933	0.016327	-0.16495	0.017853	-0.000153	0.016174	0.16678	-0.057068	-0.011444	0.028076	-0.027771	-0.046234	-0.011902	-0.046539	-0.15976	-0.41596	-0.017853	-0.009918	0.032043	-0.012665	0.008392	0.093994	0.012512	-0.1152	0.07309	0.03952	-0.001526	-0.19684	-0.003967	-0.159	0.078735	0.002289	-0.024872
25.934	0.005341	-0.16296	-0.040741	0.004272	0.045624	0.17899	0.032654	-0.028687	-0.083008	-0.028076	0.001831	-0.01358	-0.14572	-0.20401	-0.41473	-0.021667	-0.013428	-0.032043	-0.06897	0.067291	0.075684	0.055695	-0.15717	-0.010681	0.11978	-0.000153	-0.16953	-0.005188	-0.083466	0.008545	0.000305	-0.016327
25.935	0.005341	-0.12817	-0.045624	0.000305	0.016632	0.1297	0.016174	0.03418	-0.103	-0.016479	-0.017548	-0.010529	-0.16968	-0.16922	-0.11978	-0.024719	-0.007172	0.007782	-0.038452	0.088348	-0.076752	0.21652	-0.12589	0.059052	0.18249	0.001373	-0.1767	-0.003204	0.036316	-0.05722	0.002594	-0.016022
25.936	-0.003204	-0.10391	-0.009155	-0.005798	-0.017242	0.010681	-0.005188	0.025482	-0.075378	-0.026855	-0.1062	-0.021057	-0.3157	-0.055389	0.032959	-0.021667	-0.00885	-0.027466	-0.00885	0.02182	-0.16022	0.19241	-0.086212	0.059662	0.1033	0.003357	-0.004578	-0.003204	0.065002	-0.089722	0.000763	-0.012665
25.937	-0.003357	-0.084229	0.028992	-0.003967	-0.010071	-0.12741	-0.023804	0.033417	-0.071716	-0.027618	-0.13321	-0.016174	-0.3212	0.044403	0.056763	-0.009003	0.0177	-0.040436	-0.002441	0.03891	-0.23453	0.14755	-0.24551	0.014496	0.081177	-0.000153	-0.10788	-0.000305	0.019836	-0.043488	0.001678	-0.014191
25.938	-0.000763	-0.018463	0.003967	0.001373	-0.012665	-0.22553	-0.018616	0.010223	-0.031738	-0.00061	-0.082703	-0.008545	-0.26611	0.018311	0.065613	-0.009003	0.016327	-0.025177	-0.063019	0.078583	-0.32379	0.11566	-0.17944	0.075226	0.13077	-0.006714	-0.05722	0.001221	-0.060577	-0.023193	0.005798	-0.019684
25.939	-0.009003	0.028992	-0.041046	0	-0.007172	-0.23193	-0.060883	0.009003	0.016479	0.008392	-0.059662	-0.00824	0.10956	-0.037537	0.096741	-0.004883	0.003815	-0.067596	-0.032501	0.096893	-0.32257	0.083466	-0.0354	0.037079	0.095673	-0.011749	0.000916	-0.002899	-0.050964	0.072174	0.000153	-0.010834
25.94	-0.015411	0.004425	-0.054779	0.001678	-0.035248	-0.1796	-0.10605	0.00946	0.039368	0.011292	-0.048981	-0.001373	0.016327	-0.078583	0.16571	-0.010376	-0.037994	-0.074615	-0.12482	0.059967	0.19028	0.029297	-0.052795	0.033569	0.066528	-0.013275	0.10452	-0.002899	-0.043488	0.050354	0.001221	-0.011749
25.941	-0.026398	0.009613	-0.019989	-0.010529	-0.10315	-0.1178	-0.06012	-0.003204	0.058899	0.024567	-0.06073	-0.003052	0.06897	-0.08667	0.15656	0.006256	-0.025787	-0.093994	-0.1648	0.010834	0.26428	-0.043793	-0.054321	-0.017853	0.039673	-0.010529	0.18463	-0.009308	-0.054779	0.089722	0.001068	-0.011597
25.942	-0.032196	0.0177	-0.025482	-0.007935	-0.10361	-0.13596	-0.05722	0.010071	0.075531	0.04303	-0.067444	0.003967	0.097961	-0.067139	0.14358	-0.000916	-0.003052	-0.06073	0.056763	-0.013885	0.086365	-0.0914	-0.065613	-0.017395	0.03479	-0.004272	0.046082	-0.002441	-0.049286	0.088348	0.000305	-0.018311
25.943	-0.016479	0.076752	0.037231	-0.002441	0.010071	-0.098267	-0.12695	0.007324	0.068817	0.037231	-0.045776	-0.001984	0.07782	-0.04425	0.10849	0.002747	0.000916	-0.048065	0.20279	-0.064087	0.081177	-0.070496	-0.11795	0.027771	0.045013	-0.006256	-0.051575	-0.01236	-0.059662	0.059662	-0.00061	-0.021362
25.944	0.000305	0.016022	0.023499	-0.006409	0.078888	-0.12222	-0.10025	-0.001373	-0.033417	0.026398	-0.027008	0.00824	-0.020447	-0.022888	0.092163	0.011902	-0.015106	-0.053253	0.1088	-0.027618	0.16357	-0.028687	-0.009918	0.02121	0.04364	-0.008087	-0.00824	-0.014191	-0.056	0.04837	0.002289	-0.022888
25.945	-0.001984	-0.023651	0.002747	0.006561	0.036316	-0.062256	-0.10101	-0.008087	-0.051422	0.010223	0.003052	0.006561	-0.21668	-0.029297	0.08255	-0.002441	-0.004883	-0.078125	0.13794	0.009918	0.14038	-0.07019	0.044556	-0.037994	0.031586	-0.008545	0.008087	-0.003662	-0.058441	0.035248	0.001984	-0.030975
25.946	0.000458	-0.025787	-0.018005	-0.005493	0.018616	0.012207	-0.13412	-0.009918	0.040283	0.018005	0.006866	0.00885	-0.19501	-0.043945	0.007172	0.008698	-0.003967	-0.10727	-0.033417	0.074768	0.083008	-0.061798	0.057526	-0.039978	-0.00351	-0.003357	-0.025635	-0.003204	-0.028839	0.020294	-0.000458	-0.028076
25.947	-0.001373	-0.061951	0.012054	-0.006561	-0.028992	0.15106	-0.11841	0.011749	0.069122	0.012512	0.003052	0.02121	-0.11261	-0.036469	0.001678	0.009308	0.017853	-0.063629	-0.10361	0.058136	0.045319	0.002594	0.04364	-0.079193	0.00824	-0.005341	0.015411	0.002136	-0.031586	0.013275	-0.000305	-0.024109
25.948	0.009155	-0.043335	0.05127	-0.009613	0.049133	0.1387	-0.12375	0.006256	0.095673	0.017395	0.000305	0.014191	-0.10422	-0.022278	0.021515	0.024261	0.022278	-0.096588	0.093231	0.009003	0.036011	-0.015564	-0.014801	-0.11093	-0.024567	-0.012665	0.030212	-0.002136	-0.03006	0.002289	0.002136	-0.021057
25.949	0.023346	-0.052338	-0.016937	-0.00412	0.14496	0.15595	-0.14069	-0.001068	0.13855	0.021973	0.022583	0.019989	-0.078583	0.005646	0.038605	0.014343	0.021515	-0.06485	0.16342	0.017548	0.075378	-0.048065	-0.054321	-0.093842	-0.025177	-0.002594	0.072174	-0.004883	-0.059509	0.000763	0.001526	-0.018463
25.95	0.026855	-0.063934	-0.032349	-0.011292	-0.003052	0.19486	-0.16327	0.004425	0.11765	0.04425	0.028687	0.018311	0.027466	-0.016479	0.035095	0.016785	0.029297	-0.051727	0.068512	-0.00473	0.084076	-0.01709	-0.075836	-0.031281	0.019379	0.006104	-0.039673	-0.000305	-0.026703	-0.015717	-0.001068	-0.02533
25.951	0.029144	-0.046844	0.003815	-0.004272	-0.11017	0.10361	-0.16235	0.003052	0.057678	0.11749	0.023346	0.025177	0.26886	-0.003357	-0.016327	0.016174	0.058746	-0.009155	0.11917	0.005341	0.009766	-0.042114	-0.16678	-0.077972	0.041046	-0.001068	-0.061646	-0.004272	-0.041351	-0.024414	-0.004578	-0.019989
25.952	0.019073	-0.029144	-0.016937	-0.005493	-0.13794	-0.005035	-0.12756	0.010681	-0.074463	0.13275	0.014191	0.023041	0.34409	0.020752	-0.01358	0.012817	0.058594	0.007172	0.00824	-0.007019	-0.081635	-0.032654	-0.24475	-0.10117	0.052032	-0.009918	0.10239	-0.003967	-0.066986	-0.046692	-0.001221	-0.016479
25.953	0.015259	-0.028076	-0.020599	0.016785	-0.075989	-0.019073	-0.11078	0.003052	-0.23483	0.10147	0.011597	0.022888	0.74585	0.02182	-0.002136	0.003052	0.039063	0.010223	-0.1149	-0.019531	0.050659	-0.041656	-0.22049	-0.01297	0.061798	-0.00412	0.14618	-0.00824	-0.088806	-0.036774	-0.001678	-0.019379
25.954	0.009918	-0.065002	-0.018768	0.01236	0.080872	-0.071411	-0.078583	0.005798	-0.23102	0.097961	-0.007019	0.019836	0.54901	-0.02533	0.033112	0.01358	0.004578	0.014191	0.039673	-0.045776	-0.085754	0.072021	-0.076447	-0.075989	0.030975	-0.002899	0.020599	-0.002594	-0.084229	-0.044403	-0.001373	-0.019684
25.955	-0.000458	-0.024872	-0.012817	0.001373	0.18265	-0.028229	-0.049286	-0.005493	-0.13596	0.10254	0.004578	0.013275	-0.08667	0.02243	0.091095	-0.00885	0.010376	-0.009003	0.007629	-0.025177	-0.28992	0.14481	-0.019989	-0.13412	-0.02243	-0.000458	-0.11963	-0.003357	-0.097046	-0.03067	0.002899	-0.018005
25.956	-0.005798	-0.034637	-0.009308	-0.003815	0.096283	0.051575	-0.043793	0.001221	-0.074005	-0.097504	0.020447	0.015411	-0.50369	0.066376	0.049133	-0.004883	0.026093	0.015717	-0.035248	-0.046082	-0.054932	0.074158	-0.039368	-0.1265	0.00412	0.000153	-0.1857	-0.007935	-0.06897	0.032501	-0.001526	-0.01709
25.957	-0.010986	0.009155	-0.013123	-0.019989	0.021973	0.057373	-0.065308	-0.002289	-0.052948	-0.14481	0.016022	0.018921	-0.52933	0.088959	0.029449	-0.00061	-0.01297	-0.004272	0.089722	-0.016327	0.14633	0.085907	-0.12955	0.036469	0.001221	0.005493	0.029907	-0.009613	-0.057678	0.022888	0.001678	-0.012054
25.958	-0.00412	0.021515	-0.012665	-0.001678	-0.022888	-0.086365	-0.072632	0.008087	-0.041962	-0.057983	-0.008545	0.01358	-0.31296	-0.053101	-0.036774	-0.001221	-0.046844	0.029297	0.12222	0.025177	0.28488	0.095825	-0.18707	0.13504	0.003662	0.007019	0.36743	-0.003357	-0.02243	-0.037384	0.003204	-0.017395
25.959	0.010986	0.021973	-0.009003	0.016479	-0.030975	-0.038452	-0.10025	-0.006561	-0.005951	-0.047607	-0.005035	-0.000305	0.60501	-0.16464	0.031281	-0.003815	-0.04776	0.024567	0.24628	0.041504	0.11993	0.079803	-0.08606	0.05249	-0.05722	-0.00351	0.43655	-0.007477	-0.051422	-0.005951	-0.000153	-0.01709
25.96	0.014648	0.042572	-0.007935	0.000153	-0.054932	0.032959	-0.083923	-0.010376	0.002441	-0.03006	0.012054	-0.008545	0.57022	-0.080109	0.11169	0.004272	-0.032196	0.044098	0.15732	0.057526	0.044098	0.048065	-0.045624	0.049591	0.022125	-0.014648	0.20493	-0.005188	-0.091095	-0.015869	0.00061	-0.018311
